<svg xmlns="http://www.w3.org/2000/svg" data-name="Layer 1" viewBox="0 0 32 32" id="task-list"><rect width="21" height="28" x="1.5" y="3.5" fill="#b28966" rx="2" ry="2"></rect><path fill="#fff" d="M16.50016,29.5H4.5a1,1,0,0,1-1-1V6.5a1,1,0,0,1,1-1h15a1,1,0,0,1,1,1V25.49982"></path><path fill="#afaeb3" d="M14.5,3.5V3.14251A2.598,2.598,0,0,0,12.25781.51293,2.50052,2.50052,0,0,0,9.5,3v.5h-1a1,1,0,0,0-1,1v2a1,1,0,0,0,1,1h7a1,1,0,0,0,1-1v-2a1,1,0,0,0-1-1Z"></path><circle cx="12" cy="3.5" r=".5" fill="#fff"></circle><path fill="#afaeb3" d="M16.5,29.5v-3a1,1,0,0,1,1-1h3Z"></path><circle cx="8" cy="12" r="1.5" fill="#58565d"></circle><circle cx="8" cy="24" r="1.5" fill="#58565d"></circle><circle cx="8" cy="18" r="1.5" fill="#58565d"></circle><path fill="#3f6db4" d="M28.5,6.5V24.83a1.96852,1.96852,0,0,1-.4,1.2l-.6.8-.5.67-.5-.67-.6-.8a1.96852,1.96852,0,0,1-.4-1.2V6.5a1.003,1.003,0,0,1,1-1h1A1.003,1.003,0,0,1,28.5,6.5Z"></path><path fill="#58565d" d="M28.5 23.5v1.33a1.96852 1.96852 0 0 1-.4 1.2L27 27.5l-1.1-1.47a1.96852 1.96852 0 0 1-.4-1.2V23.5zM28.5 6.5V9h-3V6.5a1.003 1.003 0 0 1 1-1h1A1.003 1.003 0 0 1 28.5 6.5z"></path><path d="M20.5,3H15A3.09566,3.09566,0,0,0,12.31.02,3.00476,3.00476,0,0,0,9,3H3.5A2.50091,2.50091,0,0,0,1,5.5v24A2.50091,2.50091,0,0,0,3.5,32h17A2.50091,2.50091,0,0,0,23,29.5V5.5A2.50091,2.50091,0,0,0,20.5,3ZM8,6V4.5A.49511.49511,0,0,1,8.5,4h1a.49514.49514,0,0,0,.5-.5V3a2.00161,2.00161,0,0,1,.66-1.48A1.9486,1.9486,0,0,1,12.21,1.01,2.08183,2.08183,0,0,1,13.99,3a.61419.61419,0,0,1,.01.14V3.5a.49514.49514,0,0,0,.5.5h1a.49511.49511,0,0,1,.5.5v2a.49514.49514,0,0,1-.5.5h-7A.49514.49514,0,0,1,8,6.5Zm.5,2h7A1.498,1.498,0,0,0,17,6.5V6h2.5a.49511.49511,0,0,1,.5.5V25H17.5A1.50164,1.50164,0,0,0,16,26.5V29H4.5a.49514.49514,0,0,1-.5-.5V6.5A.49511.49511,0,0,1,4.5,6H7v.5A1.498,1.498,0,0,0,8.5,8ZM19.293,26,17,28.293V26.5a.50034.50034,0,0,1,.5-.5ZM22,29.5A1.498,1.498,0,0,1,20.5,31H3.5A1.498,1.498,0,0,1,2,29.5V5.5A1.498,1.498,0,0,1,3.5,4H7.09A1.386,1.386,0,0,0,7,4.5V5H4.5A1.498,1.498,0,0,0,3,6.5v22A1.498,1.498,0,0,0,4.5,30h12a.50012.50012,0,0,0,.18976-.03748.48849.48849,0,0,0,.17133-.11658L20.846,25.861a.48734.48734,0,0,0,.129-.23462.46243.46243,0,0,0,.01221-.06177A.47471.47471,0,0,0,21,25.5V6.5A1.498,1.498,0,0,0,19.5,5H17V4.5a1.386,1.386,0,0,0-.09-.5H20.5A1.498,1.498,0,0,1,22,5.5ZM12,4a.5.5,0,1,0-.5-.5A.49514.49514,0,0,0,12,4ZM6,12a2,2,0,1,0,2-2A2.00591,2.00591,0,0,0,6,12Zm2-1a1,1,0,1,1-1,1A1.003,1.003,0,0,1,8,11ZM8,22a2,2,0,1,0,2,2A2.002,2.002,0,0,0,8,22Zm0,3a1,1,0,1,1,1-1A1.0013,1.0013,0,0,1,8,25Zm0-9a2,2,0,1,0,2,2A2.002,2.002,0,0,0,8,16Zm0,3a1,1,0,1,1,1-1A1.0013,1.0013,0,0,1,8,19Zm4.5-8h5a.5.5,0,0,0,0-1h-5a.5.5,0,0,0,0,1Zm0,3h2a.5.5,0,0,0,0-1h-2a.5.5,0,0,0,0,1Zm0,3h5a.5.5,0,0,0,0-1h-5a.5.5,0,0,0,0,1Zm0,3h2a.5.5,0,0,0,0-1h-2a.5.5,0,0,0,0,1Zm0,3h5a.5.5,0,0,0,0-1h-5a.5.5,0,0,0,0,1Zm0,3h2a.5.5,0,0,0,0-1h-2a.5.5,0,0,0,0,1Zm17-17H29V6.5A1.498,1.498,0,0,0,27.5,5h-1A1.498,1.498,0,0,0,25,6.5V24.83a2.52612,2.52612,0,0,0,.5,1.5l1,1.33643V28.5a.5.5,0,0,0,1,0v-.83362l1-1.33643a2.52612,2.52612,0,0,0,.5-1.5V10h.5a.50034.50034,0,0,1,.5.5v4a.5.5,0,0,0,1,0v-4A1.50164,1.50164,0,0,0,29.5,9ZM28,24.83a1.49784,1.49784,0,0,1-.3.9l-.7.94-.7-.94a1.49784,1.49784,0,0,1-.3-.9V24h2ZM28,23H26V9h2ZM28,8H26V6.5a.49511.49511,0,0,1,.5-.5h1a.49511.49511,0,0,1,.5.5Z"></path></svg>